<svg width="629" height="225" viewBox="0 0 629 225" fill="none" xmlns="http://www.w3.org/2000/svg">
<path d="M269.316 97H260.164L248.58 80.808H239.492V97H232.068V52.2H251.524C253.764 52.2 255.748 52.584 257.54 53.416C259.332 54.248 260.868 55.272 262.148 56.616C263.428 57.96 264.388 59.496 265.092 61.224C265.796 62.952 266.116 64.68 266.116 66.536C266.116 68.392 265.796 69.992 265.22 71.464C264.644 72.936 263.876 74.28 262.979 75.368C262.083 76.456 261.124 77.416 260.036 78.12C258.948 78.824 257.86 79.336 256.772 79.592L269.316 97ZM251.78 73.448C252.74 73.448 253.7 73.256 254.532 72.872C255.364 72.552 256.068 72.04 256.708 71.4C257.284 70.76 257.796 69.992 258.18 69.16C258.5 68.328 258.692 67.432 258.692 66.472C258.692 65.512 258.5 64.552 258.18 63.72C257.796 62.888 257.284 62.184 256.708 61.544C256.068 60.968 255.3 60.456 254.468 60.072C253.636 59.752 252.74 59.56 251.78 59.56H239.492V73.448H251.78ZM298.492 70.888H321.02V78.312H298.492V89.576H323.9V97H291.068V52.2H323.9V59.56H298.492V70.888ZM355.492 97H348.068V52.2H354.404L377.636 83.24V52.2H385.06V97H378.724L355.492 65.96V97ZM429.189 97H421.765V59.56H408.005V52.2H442.949V59.56H429.189V97Z" fill="#303B97"/>
<path d="M270.151 162H262.023L258.183 153.744H234.631L230.791 162H222.663L227.079 152.336L228.935 148.432L243.335 117.2H249.479L261.575 143.312L270.151 162ZM254.791 146.384L246.407 128.144L240.327 141.264L238.023 146.384H254.791ZM327.878 162H318.726L307.142 145.808H298.054V162H290.63V117.2H310.086C312.326 117.2 314.31 117.584 316.102 118.416C317.894 119.248 319.43 120.272 320.71 121.616C321.99 122.96 322.95 124.496 323.654 126.224C324.358 127.952 324.678 129.68 324.678 131.536C324.678 133.392 324.358 134.992 323.782 136.464C323.206 137.936 322.438 139.28 321.542 140.368C320.646 141.456 319.686 142.416 318.598 143.12C317.51 143.824 316.422 144.336 315.334 144.592L327.878 162ZM310.342 138.448C311.302 138.448 312.262 138.256 313.094 137.872C313.926 137.552 314.63 137.04 315.27 136.4C315.846 135.76 316.358 134.992 316.742 134.16C317.062 133.328 317.254 132.432 317.254 131.472C317.254 130.512 317.062 129.552 316.742 128.72C316.358 127.888 315.846 127.184 315.27 126.544C314.63 125.968 313.862 125.456 313.03 125.072C312.198 124.752 311.302 124.56 310.342 124.56H298.054V138.448H310.342ZM386.566 162H377.414L365.83 145.808H356.742V162H349.318V117.2H368.774C371.014 117.2 372.998 117.584 374.79 118.416C376.582 119.248 378.118 120.272 379.398 121.616C380.678 122.96 381.638 124.496 382.342 126.224C383.046 127.952 383.366 129.68 383.366 131.536C383.366 133.392 383.046 134.992 382.47 136.464C381.894 137.936 381.126 139.28 380.229 140.368C379.333 141.456 378.374 142.416 377.286 143.12C376.198 143.824 375.11 144.336 374.022 144.592L386.566 162ZM369.03 138.448C369.99 138.448 370.95 138.256 371.782 137.872C372.614 137.552 373.318 137.04 373.958 136.4C374.534 135.76 375.046 134.992 375.43 134.16C375.75 133.328 375.942 132.432 375.942 131.472C375.942 130.512 375.75 129.552 375.43 128.72C375.046 127.888 374.534 127.184 373.958 126.544C373.318 125.968 372.55 125.456 371.718 125.072C370.886 124.752 369.99 124.56 369.03 124.56H356.742V138.448H369.03ZM425.639 117.2C428.519 117.2 431.271 117.776 433.831 118.864C436.326 119.952 438.567 121.488 440.487 123.344C442.343 125.264 443.879 127.504 444.967 130C446.055 132.56 446.631 135.312 446.631 138.192V141.008C446.631 143.888 446.055 146.64 444.967 149.136C443.879 151.696 442.343 153.936 440.487 155.792C438.567 157.712 436.326 159.248 433.831 160.336C431.271 161.424 428.519 162 425.639 162C422.759 162 420.007 161.424 417.51 160.336C414.951 159.248 412.711 157.712 410.855 155.792C408.935 153.936 407.399 151.696 406.311 149.136C405.223 146.64 404.647 143.888 404.647 141.008V138.192C404.647 135.312 405.223 132.56 406.311 130C407.399 127.504 408.935 125.264 410.855 123.344C412.711 121.488 414.951 119.952 417.51 118.864C420.007 117.776 422.759 117.2 425.639 117.2ZM439.207 138.192C439.207 136.336 438.823 134.544 438.119 132.88C437.415 131.28 436.455 129.808 435.239 128.592C434.023 127.376 432.551 126.352 430.951 125.648C429.287 124.944 427.495 124.56 425.639 124.56C423.783 124.56 421.991 124.944 420.391 125.648C418.727 126.352 417.255 127.376 416.039 128.592C414.823 129.808 413.799 131.28 413.095 132.88C412.391 134.544 412.007 136.336 412.007 138.192V141.008C412.007 142.864 412.391 144.656 413.095 146.256C413.799 147.92 414.823 149.392 416.039 150.608C417.255 151.824 418.727 152.784 420.391 153.488C421.991 154.192 423.783 154.576 425.639 154.576C427.495 154.576 429.287 154.192 430.951 153.488C432.551 152.784 434.023 151.824 435.239 150.608C436.455 149.392 437.415 147.92 438.119 146.256C438.823 144.656 439.207 142.864 439.207 141.008V138.192ZM468.63 117.2H476.054L475.99 145.488C475.99 146.704 476.246 147.792 476.694 148.88C477.142 149.968 477.718 150.928 478.55 151.76C479.318 152.592 480.278 153.296 481.43 153.808C482.518 154.32 483.734 154.576 485.078 154.576C486.294 154.64 487.51 154.384 488.598 153.936C489.686 153.488 490.646 152.784 491.478 151.952C492.31 151.12 492.95 150.16 493.462 149.072C493.91 147.984 494.166 146.768 494.166 145.488V117.2H501.526V145.552C501.526 147.856 501.078 149.968 500.246 151.952C499.35 153.936 498.134 155.728 496.662 157.2C495.19 158.672 493.462 159.888 491.478 160.72C489.494 161.552 487.318 162 485.078 162C482.838 162 480.726 161.552 478.742 160.656C476.758 159.824 474.966 158.608 473.494 157.136C472.022 155.664 470.806 153.872 469.974 151.888C469.078 149.904 468.63 147.792 468.63 145.552V117.2ZM532.929 162H525.505V117.2H531.841L555.073 148.24V117.2H562.497V162H556.161L532.929 130.96V162ZM606.125 117.2C609.389 117.2 612.205 117.84 614.637 119.12C617.005 120.4 619.053 122.064 620.653 124.176C622.253 126.288 623.405 128.656 624.237 131.344C625.005 134.032 625.389 136.784 625.389 139.536C625.389 142.352 625.005 145.104 624.173 147.792C623.341 150.48 622.125 152.848 620.525 154.96C618.925 157.072 616.877 158.8 614.509 160.08C612.141 161.36 609.325 162 606.125 162H588.013V117.2H606.125ZM606.509 154.576C609.005 154.576 611.117 153.808 612.845 152.336C614.509 150.864 615.789 149.008 616.621 146.768C617.453 144.528 617.901 142.16 617.965 139.536C617.965 136.976 617.517 134.544 616.685 132.304C615.853 130.064 614.573 128.208 612.909 126.736C611.181 125.264 609.069 124.56 606.509 124.56H595.437V154.576H606.509Z" fill="#303B97"/>
<path d="M64.7373 134.944V87.4652H82.0023H97.9532C103.541 84.5728 107.36 78.7364 107.36 72.007C107.36 64.5686 102.697 58.2218 96.134 55.7366H83.8215H52.6503C39.3913 55.7366 29.4324 52.8933 21.962 48.443C0.739933 35.8035 -0.390312 10.2033 0.0730639 0H89.9778C129.72 0 161.938 32.2389 161.938 72.007C161.938 95.3256 150.861 116.054 133.682 129.213L185.999 223.741C185.999 223.741 120.561 235.863 92.2284 184.898L67.8117 140.528L64.7373 134.944Z" fill="#303B97"/>
</svg>
