<svg width="41" height="41" viewBox="0 0 41 41" fill="none" xmlns="http://www.w3.org/2000/svg">
<circle cx="20.5" cy="20.5" r="20.5" fill="#303B97"/>
<path d="M14.3163 28.4384C14.9246 27.0052 16.3449 26 18 26H24C25.6551 26 27.0754 27.0052 27.6837 28.4384M25 18.5C25 20.7091 23.2091 22.5 21 22.5C18.7909 22.5 17 20.7091 17 18.5C17 16.2909 18.7909 14.5 21 14.5C23.2091 14.5 25 16.2909 25 18.5ZM31 21C31 26.5228 26.5228 31 21 31C15.4771 31 11 26.5228 11 21C11 15.4771 15.4771 11 21 11C26.5228 11 31 15.4771 31 21Z" stroke="white" stroke-width="2" stroke-linecap="round" stroke-linejoin="round"/>
</svg>
